<svg xmlns="http://www.w3.org/2000/svg" width="150" height="150"><defs><radialGradient id="a" cx="26.024%" cy="-10.197%" r="40.408%" fx="26.024%" fy="-10.197%"><stop offset="0%" stop-color="#FDF8ED"/><stop offset="100%" stop-color="#F0C86E"/></radialGradient></defs><g fill="none" fill-rule="evenodd"><path stroke="#D9AB79" stroke-width="1.5" d="M2 12c0 6.667 2 10.667 6 12v102c-4 1.333-6 5.333-6 12M148 12c0 6.667-2 10.667-6 12v102c4 1.333 6 5.333 6 12M10.97 1.75c-.798 2.274-1.963 4.182-3.5 5.72-1.538 1.537-3.446 2.702-5.72 3.5V7.31a8.75 8.75 0 0 0 3.437-2.122A8.75 8.75 0 0 0 7.31 1.75ZM139.03 1.75c.798 2.274 1.963 4.183 3.5 5.72 1.538 1.537 3.446 2.702 5.72 3.501V7.31a8.75 8.75 0 0 1-3.437-2.121 8.75 8.75 0 0 1-2.122-3.438ZM139.03 148.25c.798-2.274 1.963-4.182 3.5-5.72 1.538-1.537 3.446-2.702 5.72-3.5v3.661a8.75 8.75 0 0 0-3.437 2.122 8.75 8.75 0 0 0-2.122 3.437ZM10.971 148.25c-.8-2.274-1.964-4.182-3.501-5.72-1.537-1.537-3.446-2.702-5.72-3.5v3.661a8.75 8.75 0 0 1 3.438 2.122 8.75 8.75 0 0 1 2.121 3.437Z"/><path stroke="url(#a)" stroke-width="4" d="M8 8c1.667-1.667 3-3.667 4-6h126c1 2.333 2.333 4.333 4 6 1.667 1.667 3.667 3 6 4v126c-2.333 1-4.333 2.333-6 4-1.667 1.667-3 3.667-4 6H12c-1-2.333-2.333-4.333-4-6-1.667-1.667-3.667-3-6-4V12c2.333-1 4.333-2.333 6-4Z"/></g></svg>